<svg version="1.0" xmlns="http://www.w3.org/2000/svg" width="346.667" height="346.667" viewBox="0 0 260 260"><path d="M90.7 71.2C87.9 76.4 31.3 186.4 24 200.9l-2.2 4.3 4.4-3.1c2.4-1.7 15.9-12.2 30.2-23.4l25.8-20.2 15.6-30.2 15.5-30.2 7.4-.7c9.5-.8 21.8-.1 23.7 1.5.8.7 1.9 3 2.3 5.2l.8 3.8L169 91.2c11.9-9.2 22.9-17.7 24.5-19l2.9-2.3-2.2-2.2-2.3-2.2-48.9-.3-48.9-.3-3.4 6.3zM225 73.9c-4.7 3.7-34.8 27.2-67 52.1-32.2 24.9-58.9 45.7-59.5 46.2-.5.4 15.5.7 36.9.6l37.8-.3 14.8-32.3c8.1-17.7 15.2-32.8 15.8-33.5 18.5-23.6 30.8-39.8 30-39.6-.2 0-4.1 3.1-8.8 6.8z"/></svg>