<svg width="20" height="18" fill="none" xmlns="http://www.w3.org/2000/svg"><path opacity=".3" fill-rule="evenodd" clip-rule="evenodd" d="M5.256 15.93L3.98 17.467A10.977 10.977 0 010 9 10.98 10.98 0 013.969.54l1.279 1.538A8.978 8.978 0 002 9a8.978 8.978 0 003.256 6.93zm9.488 0l1.277 1.538A10.977 10.977 0 0020 9 10.98 10.98 0 0016.031.54l-1.279 1.538A8.977 8.977 0 0118 9a8.978 8.978 0 01-3.256 6.93zm-2.566-3.07l1.273 1.543A6.986 6.986 0 0016 9c0-2.11-.94-4.07-2.534-5.39L12.19 5.15A4.987 4.987 0 0114 9a4.987 4.987 0 01-1.822 3.86zM6.55 14.403l1.272-1.543A4.987 4.987 0 016 9c0-1.509.671-2.906 1.81-3.85L6.535 3.61A6.986 6.986 0 004 9c0 2.117.947 4.082 2.55 5.403z" fill="#99EFD0"/></svg>